<svg width="22" height="22" viewBox="0 0 22 22" fill="none" xmlns="http://www.w3.org/2000/svg">
<path opacity="0.4" d="M20.1668 7.15915V12.7416L18.6727 11.4583C17.9577 10.8441 16.8027 10.8441 16.0877 11.4583L12.2743 14.7308C11.5593 15.345 10.4043 15.345 9.68933 14.7308L9.37766 14.4741C8.72683 13.9058 7.691 13.8508 6.95766 14.3458L2.44766 17.3708L2.34683 17.4441C2.00766 16.7108 1.8335 15.84 1.8335 14.8408V7.15915C1.8335 3.82248 3.82266 1.83331 7.15933 1.83331H14.841C18.1777 1.83331 20.1668 3.82248 20.1668 7.15915Z" fill="#B599EA"/>
<path d="M8.25003 9.51501C9.45493 9.51501 10.4317 8.53824 10.4317 7.33334C10.4317 6.12844 9.45493 5.15167 8.25003 5.15167C7.04512 5.15167 6.06836 6.12844 6.06836 7.33334C6.06836 8.53824 7.04512 9.51501 8.25003 9.51501Z" fill="#B599EA"/>
<path d="M20.1667 12.7416V14.8408C20.1667 18.1775 18.1775 20.1666 14.8408 20.1666H7.15918C4.82168 20.1666 3.13501 19.1858 2.34668 17.4441L2.44751 17.3708L6.95751 14.3458C7.69085 13.8508 8.72668 13.9058 9.37751 14.4741L9.68918 14.7308C10.4042 15.345 11.5592 15.345 12.2742 14.7308L16.0875 11.4583C16.8025 10.8441 17.9575 10.8441 18.6725 11.4583L20.1667 12.7416Z" fill="#B599EA"/>
</svg>
