<svg width="20" height="20" viewBox="0 0 20 20" fill="none" xmlns="http://www.w3.org/2000/svg">
<path fill-rule="evenodd" clip-rule="evenodd" d="M10 0.25C10.4142 0.25 10.75 0.585786 10.75 1V2.28555C12.4267 2.44496 14.0098 3.13571 15.2244 4.26355C16.6207 5.56012 17.4167 7.33106 17.4167 9.19048C17.4167 12.047 17.7449 13.6611 18.043 14.5336C18.1914 14.9677 18.3301 15.2117 18.4121 15.3325C18.45 15.3882 18.4759 15.4179 18.4855 15.4283C18.7174 15.6251 18.8086 15.9445 18.7119 16.2361C18.6101 16.5429 18.3232 16.75 18 16.75H13.7072C13.7607 16.9012 13.7664 17.0707 13.7123 17.2348C13.4658 17.9827 12.9597 18.622 12.2898 19.0686C11.6208 19.5147 10.8175 19.75 10 19.75C9.18254 19.75 8.37925 19.5147 7.71021 19.0686C7.04027 18.622 6.53425 17.9827 6.28771 17.2348C6.23361 17.0707 6.23929 16.9012 6.29287 16.75H2.00001C1.70822 16.75 1.44291 16.5808 1.31991 16.3162C1.19878 16.0556 1.23729 15.7492 1.41808 15.5269C1.42052 15.5236 1.42724 15.5146 1.4377 15.4992C1.45981 15.4668 1.49879 15.4061 1.54941 15.313C1.65055 15.1269 1.79892 14.81 1.9519 14.3286C2.25799 13.3655 2.58334 11.7415 2.58334 9.19048C2.58334 7.33106 3.37932 5.56012 4.77563 4.26355C5.99023 3.13571 7.57333 2.44496 9.25001 2.28555V1C9.25001 0.585786 9.5858 0.25 10 0.25ZM7.70712 16.75C7.7089 16.755 7.71063 16.7601 7.71231 16.7652C7.84634 17.1718 8.13058 17.5461 8.54226 17.8206C8.95483 18.0956 9.46634 18.25 10 18.25C10.5337 18.25 11.0452 18.0956 11.4578 17.8206C11.8694 17.5461 12.1537 17.1718 12.2877 16.7652C12.2894 16.7601 12.2911 16.755 12.2929 16.75H7.70712ZM10 3.75C8.41362 3.75 6.90236 4.33569 5.7963 5.36274C4.69212 6.38805 4.08334 7.76626 4.08334 9.19048C4.08334 11.8676 3.74203 13.6483 3.38145 14.7829C3.32743 14.9529 3.273 15.1083 3.21924 15.25H16.7071C16.6792 15.1766 16.6513 15.0996 16.6236 15.0187C16.2551 13.9404 15.9167 12.1497 15.9167 9.19048C15.9167 7.76626 15.3079 6.38805 14.2037 5.36274C13.0977 4.33569 11.5864 3.75 10 3.75Z" fill="#676879"/>
</svg>
