<svg width="22" height="22" viewBox="0 0 22 22" fill="none" xmlns="http://www.w3.org/2000/svg">
<path d="M12.705 15.0387C12.7691 15.0567 12.8332 15.0089 12.8332 14.9423V6.55531C12.8332 6.48707 12.7661 6.43893 12.7012 6.45981C9.8925 7.36267 7.04554 7.27097 7.04554 7.27097L5.20737 7.27222C3.87 7.27313 2.39088 7.43069 1.61598 8.5207C0.317454 10.3473 0.824321 13.2143 3.15804 14.2025L1.68112 18.861C1.47292 19.5033 1.93783 20.1666 2.59622 20.1666H4.42108C4.83627 20.1666 5.20489 19.8934 5.33618 19.4883L6.82568 14.8931C6.95698 14.488 7.32476 14.2171 7.73892 14.2473C8.6527 14.3138 10.5215 14.4247 12.705 15.0387Z" fill="#B599EA"/>
<path d="M7.73892 14.2473L7.69535 14.8457H7.69535L7.73892 14.2473ZM1.68112 18.861L2.2519 19.046L2.25306 19.0423L1.68112 18.861ZM3.15804 14.2025L3.72999 14.3838C3.82357 14.0886 3.67715 13.7707 3.392 13.65L3.15804 14.2025ZM7.04554 7.27097L7.06486 6.67128L7.055 6.67096L7.04513 6.67097L7.04554 7.27097ZM12.705 15.0387L12.5426 15.6163L12.705 15.0387ZM12.7012 6.45981L12.8848 7.03102L12.7012 6.45981ZM12.2332 6.55531V14.9423H13.4332V6.55531H12.2332ZM12.8674 14.4611C10.6193 13.8289 8.69565 13.7154 7.78249 13.6489L7.69535 14.8457C8.60975 14.9123 10.4237 15.0205 12.5426 15.6163L12.8674 14.4611ZM6.25492 14.7081L4.76542 19.3033L5.90695 19.6734L7.39645 15.0781L6.25492 14.7081ZM4.42108 19.5666H2.59622V20.7666H4.42108V19.5666ZM2.25306 19.0423L3.72999 14.3838L2.5861 14.0211L1.10918 18.6796L2.25306 19.0423ZM5.20778 7.87222L7.04595 7.87097L7.04513 6.67097L5.20697 6.67222L5.20778 7.87222ZM7.04554 7.27097C7.02622 7.87066 7.02634 7.87066 7.02646 7.87067C7.02652 7.87067 7.02665 7.87067 7.02676 7.87068C7.02699 7.87068 7.02725 7.87069 7.02756 7.8707C7.02818 7.87072 7.02898 7.87074 7.02994 7.87077C7.03188 7.87083 7.0345 7.8709 7.03779 7.87099C7.04439 7.87117 7.0537 7.8714 7.06563 7.87165C7.08949 7.87215 7.12385 7.87273 7.168 7.87312C7.25628 7.87391 7.38381 7.87395 7.5449 7.8711C7.8669 7.86539 8.32403 7.84808 8.87069 7.80183C9.96056 7.70961 11.4228 7.50098 12.8848 7.03102L12.5175 5.8886C11.1709 6.3215 9.8053 6.51846 8.76952 6.6061C8.25335 6.64978 7.8232 6.66597 7.52363 6.67129C7.37393 6.67394 7.25709 6.67387 7.17871 6.67317C7.13953 6.67282 7.10998 6.67231 7.09076 6.67191C7.08116 6.67171 7.07414 6.67154 7.06979 6.67142C7.06761 6.67136 7.06611 6.67132 7.06528 6.67129C7.06487 6.67128 7.06463 6.67127 7.06456 6.67127C7.06452 6.67127 7.06453 6.67127 7.06458 6.67127C7.0646 6.67127 7.06467 6.67128 7.06468 6.67128C7.06476 6.67128 7.06486 6.67128 7.04554 7.27097ZM3.392 13.65C1.45876 12.8313 0.997962 10.4256 2.105 8.86835L1.12697 8.17305C-0.363055 10.269 0.189887 13.5972 2.92408 14.755L3.392 13.65ZM2.59622 19.5666C2.36873 19.5666 2.16199 19.3233 2.25189 19.046L1.11035 18.676C0.783847 19.6833 1.50692 20.7666 2.59622 20.7666V19.5666ZM4.76542 19.3033C4.7115 19.4697 4.56716 19.5666 4.42108 19.5666V20.7666C5.10539 20.7666 5.69827 20.3171 5.90695 19.6734L4.76542 19.3033ZM7.78249 13.6489C7.06418 13.5966 6.46222 14.0685 6.25492 14.7081L7.39645 15.0781C7.45174 14.9075 7.58535 14.8377 7.69535 14.8457L7.78249 13.6489ZM5.20697 6.67222C4.52299 6.67268 3.75373 6.71207 3.04042 6.90987C2.31985 7.10968 1.61812 7.48217 1.12697 8.17305L2.105 8.86835C2.38874 8.46923 2.81403 8.21793 3.36108 8.06623C3.9154 7.91252 4.55438 7.87266 5.20778 7.87222L5.20697 6.67222ZM12.2332 14.9423C12.2332 14.6054 12.5544 14.3731 12.8674 14.4611L12.5426 15.6163C12.9837 15.7404 13.4332 15.4123 13.4332 14.9423H12.2332ZM13.4332 6.55531C13.4332 6.07379 12.9637 5.74519 12.5175 5.8886L12.8848 7.03102C12.5686 7.13266 12.2332 6.90035 12.2332 6.55531H13.4332Z" fill="#B599EA"/>
<mask id="mask0_11187_40060" style="mask-type:alpha" maskUnits="userSpaceOnUse" x="15" y="2" width="7" height="16">
<path d="M15.9849 2.93689H22V17.9471H15.9849V2.93689Z" fill="white"/>
</mask>
<g mask="url(#mask0_11187_40060)">
<path opacity="0.4" d="M21.4001 10.9571C21.4001 14.5015 18.5269 17.3747 14.9825 17.3747C11.4381 17.3747 8.56484 14.5015 8.56484 10.9571C8.56484 7.41273 11.4381 4.53945 14.9825 4.53945C18.5269 4.53945 21.4001 7.41273 21.4001 10.9571Z" stroke="#B599EA" stroke-width="1.2"/>
<path opacity="0.4" d="M17.3897 10.957C17.3897 12.2867 16.3118 13.3646 14.9822 13.3646C13.6525 13.3646 12.5746 12.2867 12.5746 10.957C12.5746 9.62737 13.6525 8.54946 14.9822 8.54946C16.3118 8.54946 17.3897 9.62737 17.3897 10.957Z" stroke="#B599EA" stroke-width="1.2"/>
</g>
</svg>
